<svg width="145" height="45" viewBox="0 0 145 45" fill="none" xmlns="http://www.w3.org/2000/svg">
    <path d="M6.293 15.0874H4.61328V31.4815H6.293V15.0874Z" fill="white"/>
    <path d="M34.6592 15.0874V28.963H34.5172L25.7874 15.0874H23.6582V31.4815H25.3379V17.5821H25.4799L34.2807 31.4815H36.3389V15.0874H34.6592Z" fill="white"/>
    <path d="M54.7207 23.6171H58.3404C60.5406 23.6171 61.8891 22.2865 61.8891 20.1006C61.8891 17.891 60.5406 16.5842 58.3404 16.5842H54.7207V23.6171ZM62.4806 31.4815L58.506 25.0664H58.3641H54.7207V31.4815H53.041V15.0874H58.3877C61.6525 15.0874 63.6161 16.9881 63.6161 20.0769C63.6161 22.5479 62.3386 24.2823 60.1384 24.8526L64.3259 31.4577H62.4806V31.4815Z" fill="white"/>
    <path d="M79.3486 25.2327V15.0874H81.0284V25.2565C81.0284 28.4165 82.6844 30.1747 85.5943 30.1747C88.5043 30.1747 90.1604 28.4165 90.1604 25.2565V15.0874H91.8401V25.2327C91.8401 29.4144 89.5689 31.7191 85.5943 31.7191C81.5961 31.7191 79.3486 29.4144 79.3486 25.2327Z" fill="white"/>
    <path d="M108.969 15.0874V31.4815H117.817V30.0321H110.648V15.0874H108.969Z" fill="white"/>
    <path d="M132.745 15.0874V31.4815H142.232V30.0321H134.425V23.9259H141.049V22.4528H134.425V16.5605H142.019V15.0874H132.745Z" fill="white"/>
    <path d="M1.89258 2.23341L5.44128 7.93571L9.01364 2.23341H1.89258Z" fill="url(#paint0_linear_5_6220)"/>
    <defs>
        <linearGradient id="paint0_linear_5_6220" x1="-1.25003" y1="-1.40036" x2="9.88134" y2="7.04441" gradientUnits="userSpaceOnUse">
            <stop offset="0.2442" stop-color="#FFFF00"/>
            <stop offset="0.8368" stop-color="#F69300"/>
        </linearGradient>
    </defs>
</svg>
