<svg width="20" height="20" viewBox="0 0 20 20" fill="none" xmlns="http://www.w3.org/2000/svg">
    <path d="M14.7917 2.29565C14.4349 2.29565 14.0779 2.42999 13.8094 2.69849L12.2819 4.22599C11.7447 4.7632 11.7447 5.65331 12.2819 6.19051L13.8094 7.71883C14.3464 8.25583 15.2369 8.25583 15.7739 7.71883L17.3014 6.19051C17.8386 5.65331 17.8386 4.7632 17.3014 4.22599L15.7739 2.69849C15.5054 2.42999 15.1484 2.29565 14.7917 2.29565ZM5.20833 2.49992C4.35764 2.49992 3.64048 2.84143 3.17871 3.36092C2.71694 3.88041 2.5 4.54853 2.5 5.20825C2.5 5.86797 2.71694 6.53609 3.17871 7.05558C3.64048 7.57507 4.35764 7.91659 5.20833 7.91659C6.6967 7.91659 7.91667 6.69662 7.91667 5.20825C7.91667 3.71988 6.6967 2.49992 5.20833 2.49992ZM14.7917 3.53752C14.8256 3.53752 14.8595 3.55244 14.8893 3.58228L16.4176 5.1106C16.4771 5.17006 16.4771 5.24726 16.4176 5.30672L14.8893 6.83504C14.8297 6.89471 14.7537 6.89471 14.694 6.83504L13.1657 5.30672C13.1062 5.24726 13.1062 5.17006 13.1657 5.1106L14.694 3.58228C14.7238 3.55244 14.7578 3.53752 14.7917 3.53752ZM5.20833 3.74992C6.02115 3.74992 6.66667 4.39543 6.66667 5.20825C6.66667 6.02107 6.02115 6.66659 5.20833 6.66659C4.67014 6.66659 4.34563 6.48727 4.11296 6.2255C3.88028 5.96374 3.75 5.5902 3.75 5.20825C3.75 4.82631 3.88028 4.45276 4.11296 4.191C4.34563 3.92924 4.67014 3.74992 5.20833 3.74992ZM7.375 4.58325C7.29218 4.58208 7.20995 4.59738 7.1331 4.62827C7.05624 4.65915 6.98629 4.705 6.92731 4.76315C6.86833 4.82131 6.82149 4.8906 6.78953 4.96701C6.75756 5.04342 6.7411 5.12542 6.7411 5.20825C6.7411 5.29108 6.75756 5.37308 6.78953 5.44949C6.82149 5.5259 6.86833 5.5952 6.92731 5.65335C6.98629 5.71151 7.05624 5.75736 7.1331 5.78824C7.20995 5.81912 7.29218 5.83442 7.375 5.83325H12.625C12.7078 5.83442 12.79 5.81912 12.8669 5.78824C12.9438 5.75736 13.0137 5.71151 13.0727 5.65335C13.1317 5.5952 13.1785 5.5259 13.2105 5.44949C13.2424 5.37308 13.2589 5.29108 13.2589 5.20825C13.2589 5.12542 13.2424 5.04342 13.2105 4.96701C13.1785 4.8906 13.1317 4.82131 13.0727 4.76315C13.0137 4.705 12.9438 4.65915 12.8669 4.62827C12.79 4.59738 12.7078 4.58208 12.625 4.58325H7.375ZM5.19857 6.74097C5.03295 6.74355 4.87513 6.81177 4.75977 6.93064C4.64442 7.04951 4.58096 7.2093 4.58333 7.37492V12.6249C4.58216 12.7077 4.59746 12.79 4.62835 12.8668C4.65923 12.9437 4.70508 13.0136 4.76323 13.0726C4.82139 13.1316 4.89068 13.1784 4.96709 13.2104C5.0435 13.2424 5.1255 13.2588 5.20833 13.2588C5.29116 13.2588 5.37316 13.2424 5.44957 13.2104C5.52599 13.1784 5.59528 13.1316 5.65343 13.0726C5.71159 13.0136 5.75744 12.9437 5.78832 12.8668C5.8192 12.79 5.8345 12.7077 5.83333 12.6249V7.37492C5.83453 7.29127 5.81893 7.20822 5.78744 7.13071C5.75596 7.0532 5.70923 6.9828 5.65004 6.92368C5.59084 6.86457 5.52038 6.81793 5.44283 6.78654C5.36528 6.75516 5.28222 6.73966 5.19857 6.74097ZM14.7819 6.74097C14.6163 6.74355 14.4585 6.81177 14.3431 6.93064C14.2277 7.04951 14.1643 7.2093 14.1667 7.37492V12.6249C14.1655 12.7077 14.1808 12.79 14.2117 12.8668C14.2426 12.9437 14.2884 13.0136 14.3466 13.0726C14.4047 13.1316 14.474 13.1784 14.5504 13.2104C14.6268 13.2424 14.7088 13.2588 14.7917 13.2588C14.8745 13.2588 14.9565 13.2424 15.0329 13.2104C15.1093 13.1784 15.1786 13.1316 15.2368 13.0726C15.2949 13.0136 15.3408 12.9437 15.3717 12.8668C15.4025 12.79 15.4178 12.7077 15.4167 12.6249V7.37492C15.4179 7.29127 15.4023 7.20822 15.3708 7.13071C15.3393 7.0532 15.2926 6.9828 15.2334 6.92368C15.1742 6.86457 15.1037 6.81793 15.0262 6.78654C14.9486 6.75516 14.8656 6.73966 14.7819 6.74097ZM3.95833 12.0833C3.16044 12.0833 2.5 12.7437 2.5 13.5416V16.0416C2.5 16.8395 3.16044 17.4999 3.95833 17.4999H6.45833C7.25623 17.4999 7.91667 16.8395 7.91667 16.0416V13.5416C7.91667 12.7437 7.25623 12.0833 6.45833 12.0833H3.95833ZM14.7917 12.0833C13.941 12.0833 13.2238 12.4248 12.762 12.9443C12.3003 13.4637 12.0833 14.1319 12.0833 14.7916C12.0833 15.4513 12.3003 16.1194 12.762 16.6389C13.2238 17.1584 13.941 17.4999 14.7917 17.4999C16.28 17.4999 17.5 16.28 17.5 14.7916C17.5 13.3032 16.28 12.0833 14.7917 12.0833ZM3.95833 13.3333H6.45833C6.58127 13.3333 6.66667 13.4187 6.66667 13.5416V16.0416C6.66667 16.1645 6.58127 16.2499 6.45833 16.2499H3.95833C3.8354 16.2499 3.75 16.1645 3.75 16.0416V13.5416C3.75 13.4187 3.8354 13.3333 3.95833 13.3333ZM14.7917 13.3333C15.6045 13.3333 16.25 13.9788 16.25 14.7916C16.25 15.6044 15.6045 16.2499 14.7917 16.2499C14.2535 16.2499 13.929 16.0706 13.6963 15.8088C13.4636 15.5471 13.3333 15.1735 13.3333 14.7916C13.3333 14.4096 13.4636 14.0361 13.6963 13.7743C13.929 13.5126 14.2535 13.3333 14.7917 13.3333Z" fill="#616F7C"/>
    <path d="M8 15H12" stroke="#616F7C" stroke-width="1.25" stroke-linecap="round" stroke-linejoin="round"/>
</svg>
