<svg width="40" height="40" viewBox="0 0 40 40" fill="none" xmlns="http://www.w3.org/2000/svg">
    <path d="M2 6.11111C2 4.39289 3.39289 3 5.11111 3H33.8889C35.6071 3 37 4.39289 37 6.11111V34.8889C37 36.6071 35.6071 38 33.8889 38H5.11111C3.39289 38 2 36.6071 2 34.8889V6.11111Z" fill="#F69300"/>
    <path d="M31.8116 23.6762C32.0628 23.8208 32.0628 24.1792 31.8116 24.3238L18.5707 31.9484C18.3177 32.0941 18 31.9139 18 31.6246L18 16.3754C18 16.0861 18.3177 15.9059 18.5707 16.0516L31.8116 23.6762Z" fill="#0E121B"/>
    <path d="M23.8106 19.6715C24.0631 19.8168 24.0631 20.1832 23.8106 20.3285L10.5626 27.9496C10.3119 28.0937 10 27.9116 10 27.6211L10 12.3789C10 12.0884 10.3119 11.9062 10.5626 12.0504L23.8106 19.6715Z" fill="#0E121B"/>
    <path d="M31.8121 15.6755C32.0626 15.8197 32.0626 16.1803 31.8121 16.3245L18.5638 23.9492C18.3132 24.0934 18 23.9132 18 23.6248L18 8.37521C18 8.0868 18.3132 7.90655 18.5638 8.05075L31.8121 15.6755Z" fill="#0E121B"/>
    <path d="M24.7895 19.6332C25.0702 19.7962 25.0702 20.2038 24.7895 20.3668L18.6316 23.9426C18.3509 24.1056 18 23.9019 18 23.5759L18 16.4241C18 16.0981 18.3509 15.8944 18.6316 16.0574L24.7895 19.6332Z" fill="white"/>
    <path d="M0 4C0 1.79086 1.79086 0 4 0H36C38.2091 0 40 1.79086 40 4V36C40 38.2091 38.2091 40 36 40H4C1.79086 40 0 38.2091 0 36V4Z" fill="#158649"/>
    <path d="M13.6794 25.499C19.1154 25.687 23.1397 27.4977 25.3026 28.4709L25.3044 28.4717C25.6894 28.6452 26.0207 28.7933 26.2947 28.9053L28.0007 24.5H27.5007M13.6794 25.499L13.6968 24.9993M13.6794 25.499C13.0013 25.4754 12.4334 25.0727 12.1683 24.499H12.7456M13.6794 25.499L13.6967 24.9993C13.6968 24.9993 13.6968 24.9993 13.6968 24.9993M13.6968 24.9993C19.231 25.1907 23.328 27.0341 25.5022 28.0124L25.5096 28.0157L25.5099 28.0158C25.8963 28.19 26.2194 28.3344 26.4839 28.4424L26.4841 28.4425C26.5756 28.48 26.67 28.498 26.7634 28.498C26.9067 28.498 27.0494 28.4558 27.1739 28.3725L27.4519 28.7881L27.1733 28.3729C27.3779 28.2356 27.5007 28.0058 27.5007 27.7568V24.5M13.6968 24.9993C13.3019 24.9856 12.9601 24.7923 12.7456 24.499M27.5007 24.5H27.0007M27.5007 24.5V24M27.5007 24H27.0007V24.5M27.5007 24L13.6998 24.499M27.5007 24L27.0007 24.5M27.0007 24.5H26.5007V25.5V26C25.9331 26 25.446 26.3166 25.1912 26.7803C22.8163 25.7318 18.9055 24.1788 13.7312 24M13.7312 24C13.7302 24 13.7292 23.999 13.7292 23.999M13.7312 24V24.5C13.7205 24.5 13.71 24.4997 13.6998 24.499M13.7312 24L13.7292 24.0566V23.999M13.7292 23.999H12.5294C12.5642 24.1838 12.6393 24.3537 12.7456 24.499M13.7292 23.999C13.3714 24.3483 13.3715 24.3484 13.3716 24.3485L13.3718 24.3486L13.3722 24.349L13.3729 24.3498L13.3744 24.3513L13.3775 24.3544L13.3843 24.361C13.3891 24.3656 13.3946 24.3706 13.4008 24.376C13.4127 24.3864 13.4295 24.4001 13.451 24.4145C13.4773 24.4322 13.5673 24.4907 13.6998 24.499M12.7456 24.499H13.6998M13.5007 12H13.0007V12.5C13.0007 13.0539 12.5546 13.5 12.0007 13.5H11.5007V14V20V20.5H12.0007C12.5546 20.5 13.0007 20.9461 13.0007 21.5V22H13.5007H26.5007H27.0007V21.5C27.0007 20.9461 27.4469 20.5 28.0007 20.5H28.5007V20V14V13.5H28.0007C27.4469 13.5 27.0007 13.0539 27.0007 12.5V12H26.5007H13.5007ZM11.0007 12.75C11.0007 12.0687 11.5694 11.5 12.2507 11.5H27.7507C28.4321 11.5 29.0007 12.0687 29.0007 12.75V21.25C29.0007 21.9313 28.4321 22.5 27.7507 22.5H12.2507C11.5694 22.5 11.0007 21.9313 11.0007 21.25V12.75ZM18.1112 14.9621C18.5169 14.4042 19.195 14 20.0007 14C20.8065 14 21.4846 14.4042 21.8903 14.9621C22.3074 15.5356 22.5007 16.2588 22.5007 17C22.5007 17.7412 22.3074 18.4644 21.8903 19.0379C21.4846 19.5958 20.8065 20 20.0007 20C19.195 20 18.5169 19.5958 18.1112 19.0379C17.694 18.4644 17.5007 17.7412 17.5007 17C17.5007 16.2588 17.694 15.5356 18.1112 14.9621ZM21.4862 15.2567C21.3282 15.0395 21.1354 14.8415 20.8771 14.7021C20.6169 14.5617 20.326 14.5 20.0007 14.5C19.6755 14.5 19.3845 14.5617 19.1244 14.7021C18.8661 14.8415 18.6733 15.0395 18.5153 15.2567C18.1824 15.7144 18.0007 16.3662 18.0007 17C18.0007 17.6338 18.1824 18.2856 18.5153 18.7433C18.6733 18.9605 18.8661 19.1585 19.1244 19.2979C19.3845 19.4383 19.6755 19.5 20.0007 19.5C20.326 19.5 20.6169 19.4383 20.8771 19.2979C21.1354 19.1585 21.3282 18.9605 21.4862 18.7433C21.819 18.2856 22.0007 17.6338 22.0007 17C22.0007 16.3662 21.819 15.7144 21.4862 15.2567ZM13.6472 16.6464C13.7409 16.5527 13.8681 16.5 14.0007 16.5C14.1333 16.5 14.2605 16.5527 14.3543 16.6464C14.4481 16.7402 14.5007 16.8674 14.5007 17C14.5007 17.1326 14.4481 17.2598 14.3543 17.3536C14.2605 17.4473 14.1333 17.5 14.0007 17.5C13.8681 17.5 13.7409 17.4473 13.6472 17.3536C13.5534 17.2598 13.5007 17.1326 13.5007 17C13.5007 16.8674 13.5534 16.7402 13.6472 16.6464ZM25.6472 16.6464C25.7409 16.5527 25.8681 16.5 26.0007 16.5C26.1333 16.5 26.2605 16.5527 26.3543 16.6464C26.4481 16.7402 26.5007 16.8674 26.5007 17C26.5007 17.1326 26.4481 17.2598 26.3543 17.3536C26.2605 17.4473 26.1333 17.5 26.0007 17.5C25.8681 17.5 25.7409 17.4473 25.6472 17.3536C25.5534 17.2598 25.5007 17.1326 25.5007 17C25.5007 16.8674 25.5534 16.7402 25.6472 16.6464Z" fill="white" stroke="white"/>
</svg>
