<svg width="20" height="20" viewBox="0 0 20 20" fill="none" xmlns="http://www.w3.org/2000/svg">
    <path fill-rule="evenodd" clip-rule="evenodd" d="M9.23658 1.60119C9.53835 0.951385 10.4621 0.951392 10.7639 1.60119L12.9873 6.38872L18.2275 7.02382C18.9388 7.11003 19.2242 7.98861 18.6995 8.47641L14.8333 12.0704L15.8487 17.2504C15.9865 17.9535 15.2391 18.4965 14.613 18.1482L10.0002 15.5818L5.38747 18.1482C4.76139 18.4965 4.01403 17.9535 4.15183 17.2504L5.16714 12.0704L1.30098 8.4764C0.77624 7.9886 1.06171 7.11003 1.77296 7.02382L7.01322 6.38872L9.23658 1.60119ZM10.0002 3.04321L8.08495 7.16738C7.96227 7.43156 7.71176 7.61357 7.42259 7.64861L2.90841 8.19572L6.23888 11.2917C6.45222 11.49 6.5479 11.7845 6.49188 12.0704L5.61725 16.5327L9.59088 14.3219C9.84542 14.1803 10.1551 14.1803 10.4096 14.3219L14.3832 16.5327L13.5086 12.0704C13.4526 11.7845 13.5483 11.49 13.7616 11.2917L17.0921 8.19572L12.5779 7.64861C12.2887 7.61357 12.0382 7.43156 11.9155 7.16738L10.0002 3.04321Z" fill="#535768"/>
</svg>
