<svg width="20" height="20" viewBox="0 0 20 20" fill="none" xmlns="http://www.w3.org/2000/svg">
    <path d="M4.99984 16.6667C4.99984 16.2246 4.82424 15.8007 4.51168 15.4882C4.19912 15.1756 3.7752 15 3.33317 15C2.89114 15 2.46722 15.1756 2.15466 15.4882C1.8421 15.8007 1.6665 16.2246 1.6665 16.6667C1.6665 17.1087 1.8421 17.5326 2.15466 17.8452C2.46722 18.1577 2.89114 18.3333 3.33317 18.3333C3.7752 18.3333 4.19912 18.1577 4.51168 17.8452C4.82424 17.5326 4.99984 17.1087 4.99984 16.6667Z" stroke="#616F7C" stroke-width="1.25" stroke-linecap="round" stroke-linejoin="round"/>
    <path d="M13.3333 3.33341C13.3333 2.89139 13.1577 2.46746 12.8452 2.1549C12.5326 1.84234 12.1087 1.66675 11.6667 1.66675C11.2246 1.66675 10.8007 1.84234 10.4882 2.1549C10.1756 2.46746 10 2.89139 10 3.33341C10 3.77544 10.1756 4.19937 10.4882 4.51193C10.8007 4.82449 11.2246 5.00008 11.6667 5.00008C12.1087 5.00008 12.5326 4.82449 12.8452 4.51193C13.1577 4.19937 13.3333 3.77544 13.3333 3.33341Z" stroke="#616F7C" stroke-width="1.25" stroke-linecap="round" stroke-linejoin="round"/>
    <path d="M13.3333 16.6667C13.3333 16.2246 13.1577 15.8007 12.8452 15.4882C12.5326 15.1756 12.1087 15 11.6667 15C11.2246 15 10.8007 15.1756 10.4882 15.4882C10.1756 15.8007 10 16.2246 10 16.6667C10 17.1087 10.1756 17.5326 10.4882 17.8452C10.8007 18.1577 11.2246 18.3333 11.6667 18.3333C12.1087 18.3333 12.5326 18.1577 12.8452 17.8452C13.1577 17.5326 13.3333 17.1087 13.3333 16.6667Z" stroke="#616F7C" stroke-width="1.25" stroke-linecap="round" stroke-linejoin="round"/>
    <path d="M9.16683 9.99992C9.16683 9.55789 8.99123 9.13397 8.67867 8.82141C8.36611 8.50885 7.94219 8.33325 7.50016 8.33325C7.05814 8.33325 6.63421 8.50885 6.32165 8.82141C6.00909 9.13397 5.8335 9.55789 5.8335 9.99992C5.8335 10.4419 6.00909 10.8659 6.32165 11.1784C6.63421 11.491 7.05814 11.6666 7.50016 11.6666C7.94219 11.6666 8.36611 11.491 8.67867 11.1784C8.99123 10.8659 9.16683 10.4419 9.16683 9.99992Z" stroke="#616F7C" stroke-width="1.25" stroke-linecap="round" stroke-linejoin="round"/>
    <path d="M17.4998 9.99992C17.4998 9.55789 17.3242 9.13397 17.0117 8.82141C16.6991 8.50885 16.2752 8.33325 15.8332 8.33325C15.3911 8.33325 14.9672 8.50885 14.6547 8.82141C14.3421 9.13397 14.1665 9.55789 14.1665 9.99992C14.1665 10.4419 14.3421 10.8659 14.6547 11.1784C14.9672 11.491 15.3911 11.6666 15.8332 11.6666C16.2752 11.6666 16.6991 11.491 17.0117 11.1784C17.3242 10.8659 17.4998 10.4419 17.4998 9.99992Z" stroke="#616F7C" stroke-width="1.25" stroke-linecap="round" stroke-linejoin="round"/>
    <path d="M4.21484 15.2551L6.61484 11.4167" stroke="#616F7C" stroke-width="1.25" stroke-linecap="round" stroke-linejoin="round"/>
    <path d="M8.38428 8.58593L10.7818 4.74927" stroke="#616F7C" stroke-width="1.25" stroke-linecap="round" stroke-linejoin="round"/>
    <path d="M8.3877 11.4209L10.7844 15.2542" stroke="#616F7C" stroke-width="1.25" stroke-linecap="round" stroke-linejoin="round"/>
    <path d="M12.5527 4.75L14.9536 8.59167" stroke="#616F7C" stroke-width="1.25" stroke-linecap="round" stroke-linejoin="round"/>
</svg>
