<svg width="20" height="20" viewBox="0 0 20 20" fill="none" xmlns="http://www.w3.org/2000/svg">
    <path d="M3.3335 5C3.3335 5.66304 4.03588 6.29893 5.28612 6.76777C6.53636 7.23661 8.23205 7.5 10.0002 7.5C11.7683 7.5 13.464 7.23661 14.7142 6.76777C15.9645 6.29893 16.6668 5.66304 16.6668 5C16.6668 4.33696 15.9645 3.70107 14.7142 3.23223C13.464 2.76339 11.7683 2.5 10.0002 2.5C8.23205 2.5 6.53636 2.76339 5.28612 3.23223C4.03588 3.70107 3.3335 4.33696 3.3335 5Z" stroke="#616F7C" stroke-width="1.25" stroke-linecap="round" stroke-linejoin="round"/>
    <path d="M3.3335 5V10C3.3335 10.663 4.03588 11.2989 5.28612 11.7678C6.53636 12.2366 8.23205 12.5 10.0002 12.5C11.7683 12.5 13.464 12.2366 14.7142 11.7678C15.9645 11.2989 16.6668 10.663 16.6668 10V5" stroke="#616F7C" stroke-width="1.25" stroke-linecap="round" stroke-linejoin="round"/>
    <path d="M3.3335 10V15C3.3335 15.663 4.03588 16.2989 5.28612 16.7678C6.53636 17.2366 8.23205 17.5 10.0002 17.5C11.7683 17.5 13.464 17.2366 14.7142 16.7678C15.9645 16.2989 16.6668 15.663 16.6668 15V10" stroke="#616F7C" stroke-width="1.25" stroke-linecap="round" stroke-linejoin="round"/>
</svg>
