<svg width="20" height="20" viewBox="0 0 20 20" fill="none" xmlns="http://www.w3.org/2000/svg">
    <path d="M4.99996 16.6667C4.99996 16.2246 4.82436 15.8007 4.5118 15.4882C4.19924 15.1756 3.77532 15 3.33329 15C2.89127 15 2.46734 15.1756 2.15478 15.4882C1.84222 15.8007 1.66663 16.2246 1.66663 16.6667C1.66663 17.1087 1.84222 17.5326 2.15478 17.8452C2.46734 18.1577 2.89127 18.3333 3.33329 18.3333C3.77532 18.3333 4.19924 18.1577 4.5118 17.8452C4.82436 17.5326 4.99996 17.1087 4.99996 16.6667Z" stroke="#6DCE20" stroke-width="1.25" stroke-linecap="round" stroke-linejoin="round"/>
    <path d="M13.3333 3.33341C13.3333 2.89139 13.1577 2.46746 12.8452 2.1549C12.5326 1.84234 12.1087 1.66675 11.6667 1.66675C11.2246 1.66675 10.8007 1.84234 10.4882 2.1549C10.1756 2.46746 10 2.89139 10 3.33341C10 3.77544 10.1756 4.19937 10.4882 4.51193C10.8007 4.82449 11.2246 5.00008 11.6667 5.00008C12.1087 5.00008 12.5326 4.82449 12.8452 4.51193C13.1577 4.19937 13.3333 3.77544 13.3333 3.33341Z" stroke="#6DCE20" stroke-width="1.25" stroke-linecap="round" stroke-linejoin="round"/>
    <path d="M13.3333 16.6667C13.3333 16.2246 13.1577 15.8007 12.8452 15.4882C12.5326 15.1756 12.1087 15 11.6667 15C11.2246 15 10.8007 15.1756 10.4882 15.4882C10.1756 15.8007 10 16.2246 10 16.6667C10 17.1087 10.1756 17.5326 10.4882 17.8452C10.8007 18.1577 11.2246 18.3333 11.6667 18.3333C12.1087 18.3333 12.5326 18.1577 12.8452 17.8452C13.1577 17.5326 13.3333 17.1087 13.3333 16.6667Z" stroke="#6DCE20" stroke-width="1.25" stroke-linecap="round" stroke-linejoin="round"/>
    <path d="M9.16671 9.99992C9.16671 9.55789 8.99111 9.13397 8.67855 8.82141C8.36599 8.50885 7.94207 8.33325 7.50004 8.33325C7.05801 8.33325 6.63409 8.50885 6.32153 8.82141C6.00897 9.13397 5.83337 9.55789 5.83337 9.99992C5.83337 10.4419 6.00897 10.8659 6.32153 11.1784C6.63409 11.491 7.05801 11.6666 7.50004 11.6666C7.94207 11.6666 8.36599 11.491 8.67855 11.1784C8.99111 10.8659 9.16671 10.4419 9.16671 9.99992Z" stroke="#6DCE20" stroke-width="1.25" stroke-linecap="round" stroke-linejoin="round"/>
    <path d="M17.5 9.99992C17.5 9.55789 17.3244 9.13397 17.0118 8.82141C16.6992 8.50885 16.2753 8.33325 15.8333 8.33325C15.3913 8.33325 14.9673 8.50885 14.6548 8.82141C14.3422 9.13397 14.1666 9.55789 14.1666 9.99992C14.1666 10.4419 14.3422 10.8659 14.6548 11.1784C14.9673 11.491 15.3913 11.6666 15.8333 11.6666C16.2753 11.6666 16.6992 11.491 17.0118 11.1784C17.3244 10.8659 17.5 10.4419 17.5 9.99992Z" stroke="#6DCE20" stroke-width="1.25" stroke-linecap="round" stroke-linejoin="round"/>
    <path d="M4.21497 15.2551L6.61497 11.4167" stroke="#6DCE20" stroke-width="1.25" stroke-linecap="round" stroke-linejoin="round"/>
    <path d="M8.38416 8.58593L10.7817 4.74927" stroke="#6DCE20" stroke-width="1.25" stroke-linecap="round" stroke-linejoin="round"/>
    <path d="M8.38745 11.4209L10.7841 15.2542" stroke="#6DCE20" stroke-width="1.25" stroke-linecap="round" stroke-linejoin="round"/>
    <path d="M12.5525 4.75L14.9533 8.59167" stroke="#6DCE20" stroke-width="1.25" stroke-linecap="round" stroke-linejoin="round"/>
</svg>
