<svg width="16" height="16" viewBox="0 0 16 16" fill="none" xmlns="http://www.w3.org/2000/svg">
    <path fill-rule="evenodd" clip-rule="evenodd" d="M8.0001 2.65C6.70223 2.65 5.6501 3.70213 5.6501 5C5.6501 6.29787 6.70223 7.35 8.0001 7.35C9.29797 7.35 10.3501 6.29787 10.3501 5C10.3501 3.70213 9.29797 2.65 8.0001 2.65ZM10.2973 7.83656C11.1226 7.16737 11.6501 6.14528 11.6501 5C11.6501 2.98416 10.0159 1.35 8.0001 1.35C5.98426 1.35 4.3501 2.98416 4.3501 5C4.3501 6.14528 4.87758 7.16737 5.70286 7.83656C3.7273 8.71682 2.3501 10.6976 2.3501 13C2.3501 13.359 2.64111 13.65 3.0001 13.65C3.35908 13.65 3.6501 13.359 3.6501 13C3.6501 10.5976 5.59766 8.65 8.0001 8.65C10.4025 8.65 12.3501 10.5976 12.3501 13C12.3501 13.359 12.6411 13.65 13.0001 13.65C13.3591 13.65 13.6501 13.359 13.6501 13C13.6501 10.6976 12.2729 8.71682 10.2973 7.83656Z" fill="#535768"/>
</svg>
