<svg width="20" height="20" viewBox="0 0 20 20" fill="none" xmlns="http://www.w3.org/2000/svg">
    <path d="M7.37391 3.00006C7.29106 2.99888 7.20881 3.01434 7.13193 3.04555C7.05505 3.07676 6.98507 3.12309 6.92607 3.18186C6.86707 3.24062 6.82022 3.31065 6.78824 3.38786C6.75626 3.46507 6.73979 3.54794 6.73979 3.63164C6.73979 3.71534 6.75626 3.7982 6.78824 3.87542C6.82022 3.95263 6.86707 4.02266 6.92607 4.08142C6.98507 4.14019 7.05505 4.18652 7.13193 4.21773C7.20881 4.24894 7.29106 4.2644 7.37391 4.26322H7.58232V9.23112C7.58232 9.61642 7.46564 9.99276 7.24854 10.3092L3.33035 16.0263V16.0272C2.84421 16.737 2.89277 17.7201 3.48829 18.3832C3.87704 18.8165 4.4209 19 4.93817 19H16.0618C16.5791 19 17.123 18.8165 17.5117 18.3832C18.1072 17.7201 18.1558 16.737 17.6696 16.0272V16.0263L13.7515 10.3092C13.5344 9.99276 13.4177 9.61642 13.4177 9.23112V4.26322H13.6261C13.7089 4.2644 13.7912 4.24894 13.8681 4.21773C13.945 4.18652 14.0149 4.14019 14.0739 4.08142C14.1329 4.02266 14.1798 3.95263 14.2118 3.87542C14.2437 3.7982 14.2602 3.71534 14.2602 3.63164C14.2602 3.54794 14.2437 3.46507 14.2118 3.38786C14.1798 3.31065 14.1329 3.24062 14.0739 3.18186C14.0149 3.12309 13.945 3.07676 13.8681 3.04555C13.7912 3.01434 13.7089 2.99888 13.6261 3.00006H12.7925H8.20754H7.37391ZM8.83275 4.26322H12.1672V7.63162H8.83275V4.26322ZM8.83275 8.89478H12.1672V9.23112C12.1672 9.87319 12.361 10.5007 12.7233 11.0288L16.6415 16.7459C16.8042 16.9842 16.7973 17.2993 16.5861 17.5345L16.5853 17.5354C16.4781 17.6549 16.2829 17.7368 16.0618 17.7368H4.93817C4.71706 17.7368 4.52193 17.655 4.41471 17.5354L4.4139 17.5345C4.20267 17.2994 4.19578 16.9842 4.35854 16.7459V16.7451L8.27673 11.0288C8.63901 10.5007 8.83275 9.87319 8.83275 9.23112V8.89478ZM9.24957 11.8421C9.02847 11.8421 8.81644 11.9309 8.6601 12.0888C8.50377 12.2467 8.41594 12.4609 8.41594 12.6842C8.41594 12.9076 8.50377 13.1218 8.6601 13.2797C8.81644 13.4376 9.02847 13.5263 9.24957 13.5263C9.47066 13.5263 9.68269 13.4376 9.83903 13.2797C9.99536 13.1218 10.0832 12.9076 10.0832 12.6842C10.0832 12.4609 9.99536 12.2467 9.83903 12.0888C9.68269 11.9309 9.47066 11.8421 9.24957 11.8421ZM12.7925 14.3684C12.5161 14.3684 12.2511 14.4793 12.0556 14.6767C11.8602 14.8742 11.7504 15.1419 11.7504 15.4211C11.7504 15.7002 11.8602 15.968 12.0556 16.1654C12.2511 16.3628 12.5161 16.4737 12.7925 16.4737C13.0688 16.4737 13.3339 16.3628 13.5293 16.1654C13.7247 15.968 13.8345 15.7002 13.8345 15.4211C13.8345 15.1419 13.7247 14.8742 13.5293 14.6767C13.3339 14.4793 13.0688 14.3684 12.7925 14.3684Z" fill="#6DCE20"/>
</svg>
