<svg width="32" height="33" viewBox="0 0 32 33" fill="none" xmlns="http://www.w3.org/2000/svg">
    <path d="M0 16.5C0 7.66344 7.16344 0.5 16 0.5C24.8366 0.5 32 7.66344 32 16.5C32 25.3366 24.8366 32.5 16 32.5C7.16344 32.5 0 25.3366 0 16.5Z" fill="#51A5C5"/>
    <path d="M7.06543 11.5469H8.59668L11.4746 19.2236L14.3457 11.5469H15.877L12.0762 21.5H10.8594L7.06543 11.5469ZM6.36816 11.5469H7.82422L8.07715 18.1914V21.5H6.36816V11.5469ZM15.1182 11.5469H16.5811V21.5H14.8652V18.1914L15.1182 11.5469ZM22.0293 19.6816L24.6475 11.5469H26.541L22.9727 21.5H21.6943L22.0293 19.6816ZM19.6094 11.5469L22.207 19.6816L22.5625 21.5H21.2773L17.7227 11.5469H19.6094Z" fill="white"/>
</svg>
