<svg width="24" height="24" viewBox="0 0 24 24" fill="none" xmlns="http://www.w3.org/2000/svg">
    <path d="M0 12C0 5.37258 5.37258 0 12 0C18.6274 0 24 5.37258 24 12C24 18.6274 18.6274 24 12 24C5.37258 24 0 18.6274 0 12Z" fill="#51A5C5"/>
    <path d="M4.81072 8.72727H6.1424L8.45774 14.3807H8.54297L10.8583 8.72727H12.19V16H11.146V10.7372H11.0785L8.93359 15.9893H8.06712L5.92223 10.7337H5.85476V16H4.81072V8.72727ZM14.421 8.72727L16.4451 14.6506H16.5268L18.551 8.72727H19.737L17.1199 16H15.8521L13.2349 8.72727H14.421Z" fill="white"/>
</svg>
