<svg width="24" height="24" viewBox="0 0 24 24" fill="none" xmlns="http://www.w3.org/2000/svg">
    <path d="M4.75 4C3.51625 4 2.5 5.01625 2.5 6.25V17.75C2.5 18.9838 3.51625 20 4.75 20H19.25C20.4838 20 21.5 18.9838 21.5 17.75V6.25C21.5 5.01625 20.4838 4 19.25 4H4.75ZM4.75 5.5H19.25C19.6733 5.5 20 5.82675 20 6.25V17.75C20 18.1732 19.6733 18.5 19.25 18.5H4.75C4.32675 18.5 4 18.1732 4 17.75V6.25C4 5.82675 4.32675 5.5 4.75 5.5ZM6.25 11.25C6.05109 11.25 5.86032 11.329 5.71967 11.4697C5.57902 11.6103 5.5 11.8011 5.5 12C5.5 12.1989 5.57902 12.3897 5.71967 12.5303C5.86032 12.671 6.05109 12.75 6.25 12.75C6.44891 12.75 6.63968 12.671 6.78033 12.5303C6.92098 12.3897 7 12.1989 7 12C7 11.8011 6.92098 11.6103 6.78033 11.4697C6.63968 11.329 6.44891 11.25 6.25 11.25Z" fill="#17B26A" stroke="#17B26A" stroke-width="0.5"/>
</svg>
