<svg width="24" height="24" viewBox="0 0 24 24" fill="none" xmlns="http://www.w3.org/2000/svg">
    <path d="M6.83578 2.50488C6.38638 2.50488 5.937 2.67417 5.59848 3.0127L3.01254 5.59863C2.33548 6.27569 2.33548 7.39619 3.01254 8.07324L6.99496 12.0557L4.45785 14.5918C4.24786 14.8018 4.09407 15.0629 4.01254 15.3496L2.52914 20.5439C2.49256 20.6725 2.49098 20.8084 2.52456 20.9378C2.55815 21.0671 2.62568 21.1852 2.72018 21.2797C2.81468 21.3742 2.9327 21.4417 3.06205 21.4753C3.1914 21.5089 3.32737 21.5073 3.4559 21.4707L8.65121 19.9873L8.65219 19.9863C8.93695 19.9045 9.19745 19.7526 9.40805 19.542L20.4745 8.47461C21.835 7.11405 21.835 4.88595 20.4745 3.52539C19.7944 2.84507 18.8972 2.50488 17.9998 2.50488C17.1025 2.50488 16.2052 2.84507 15.5252 3.52539L12.0555 6.99512L11.1131 6.05273C11.0666 5.9886 11.0103 5.93224 10.9461 5.88574L9.11312 4.05273C9.06663 3.9886 9.01027 3.93224 8.94613 3.88574L8.07309 3.0127C7.73456 2.67417 7.28518 2.50488 6.83578 2.50488ZM6.83578 3.99512C6.89817 3.99512 6.96057 4.02127 7.01254 4.07324L7.4393 4.5L7.21957 4.71973C7.14759 4.78884 7.09013 4.87161 7.05054 4.96321C7.01095 5.0548 6.99004 5.15338 6.98902 5.25316C6.98801 5.35294 7.00691 5.45192 7.04463 5.5443C7.08235 5.63668 7.13812 5.72061 7.20868 5.79117C7.27924 5.86172 7.36316 5.9175 7.45555 5.95521C7.54793 5.99293 7.64691 6.01183 7.74669 6.01082C7.84647 6.0098 7.94504 5.98889 8.03664 5.9493C8.12823 5.90972 8.21101 5.85225 8.28012 5.78027L8.49984 5.56055L9.4393 6.5L9.21957 6.71973C9.14759 6.78884 9.09013 6.87161 9.05054 6.96321C9.01095 7.0548 8.99004 7.15338 8.98902 7.25316C8.98801 7.35294 9.00692 7.45192 9.04463 7.5443C9.08235 7.63668 9.13812 7.72061 9.20868 7.79117C9.27924 7.86172 9.36316 7.91749 9.45555 7.95521C9.54793 7.99293 9.64691 8.01183 9.74669 8.01082C9.84647 8.00981 9.94504 7.98889 10.0366 7.9493C10.1282 7.90972 10.211 7.85225 10.2801 7.78027L10.4998 7.56055L10.995 8.05566L8.05551 10.9951L4.07309 7.0127C3.96914 6.90875 3.96914 6.76313 4.07309 6.65918L6.65902 4.07324C6.711 4.02127 6.77339 3.99512 6.83578 3.99512ZM17.9998 3.99609C18.5102 3.99609 19.0199 4.19276 19.4129 4.58594H19.4139C20.2013 5.37337 20.2013 6.62663 19.4139 7.41406L18.4442 8.38379L15.6161 5.55566L16.5858 4.58594C16.9788 4.19276 17.4894 3.99609 17.9998 3.99609ZM14.5555 6.61621L17.3836 9.44434L8.34652 18.4814C8.31721 18.5106 8.28008 18.5329 8.23813 18.5449L4.34164 19.6582L5.45492 15.7607V15.7598C5.46639 15.7195 5.48739 15.6834 5.5184 15.6523L14.5555 6.61621ZM18.0301 12.9697L16.9696 14.0303L18.4393 15.5L18.2196 15.7197C18.1476 15.7888 18.0901 15.8716 18.0505 15.9632C18.011 16.0548 17.99 16.1534 17.989 16.2532C17.988 16.3529 18.0069 16.4519 18.0446 16.5443C18.0823 16.6367 18.1381 16.7206 18.2087 16.7912C18.2792 16.8617 18.3632 16.9175 18.4555 16.9552C18.5479 16.9929 18.6469 17.0118 18.7467 17.0108C18.8465 17.0098 18.945 16.9889 19.0366 16.9493C19.1282 16.9097 19.211 16.8523 19.2801 16.7803L19.4998 16.5605L20.0125 17.0732C20.1165 17.1772 20.1165 17.3228 20.0125 17.4268L17.4266 20.0127C17.3227 20.1166 17.177 20.1166 17.0731 20.0127L14.0301 16.9697L12.9696 18.0303L16.0125 21.0732C16.6896 21.7503 17.8101 21.7503 18.4871 21.0732L21.0731 18.4873C21.7501 17.8103 21.7501 16.6897 21.0731 16.0127L20.1131 15.0527C20.0666 14.9886 20.0103 14.9322 19.9461 14.8857L18.0301 12.9697Z" fill="#F69300" stroke="#F69300" stroke-width="0.5"/>
</svg>
