<svg width="24" height="24" viewBox="0 0 24 24" fill="none" xmlns="http://www.w3.org/2000/svg">
    <path d="M11.75 2.5C5.88636 2.5 2 6.8125 2 11.25C2 12.9551 3.43562 14.5 5.25 14.5C5.99722 14.5 6.74879 14.3628 7.39258 14.2354C8.03637 14.1079 8.6217 14 8.75 14C9.43687 14 9.60973 14.1992 9.88086 14.752C10.152 15.3047 10.3302 16.2107 10.5654 17.1777C10.8007 18.1448 11.1022 19.1965 11.8213 20.0586C12.5404 20.9206 13.7038 21.5 15.2891 21.5C18.2597 21.5 22 18.3363 22 12.75C22 7.09813 17.4019 2.5 11.75 2.5ZM11.75 4C16.5911 4 20.5 7.90887 20.5 12.75C20.5 17.6567 17.1105 20 15.2891 20C14.0338 20 13.4276 19.6419 12.9736 19.0977C12.5197 18.5535 12.2443 17.7302 12.0234 16.8223C11.8026 15.9143 11.6462 14.9453 11.2275 14.0918C10.8089 13.2383 9.93713 12.5 8.75 12.5C8.2338 12.5 7.72102 12.6421 7.10156 12.7646C6.4821 12.8872 5.80528 13 5.25 13C4.37138 13 3.5 12.0249 3.5 11.25C3.5 7.6875 6.61364 4 11.75 4ZM11.75 5.5C11.4185 5.5 11.1005 5.6317 10.8661 5.86612C10.6317 6.10054 10.5 6.41848 10.5 6.75C10.5 7.08152 10.6317 7.39946 10.8661 7.63388C11.1005 7.8683 11.4185 8 11.75 8C12.0815 8 12.3995 7.8683 12.6339 7.63388C12.8683 7.39946 13 7.08152 13 6.75C13 6.41848 12.8683 6.10054 12.6339 5.86612C12.3995 5.6317 12.0815 5.5 11.75 5.5ZM15.25 6.5C14.9185 6.5 14.6005 6.6317 14.3661 6.86612C14.1317 7.10054 14 7.41848 14 7.75C14 8.08152 14.1317 8.39946 14.3661 8.63388C14.6005 8.8683 14.9185 9 15.25 9C15.5815 9 15.8995 8.8683 16.1339 8.63388C16.3683 8.39946 16.5 8.08152 16.5 7.75C16.5 7.41848 16.3683 7.10054 16.1339 6.86612C15.8995 6.6317 15.5815 6.5 15.25 6.5ZM17.25 9.5C16.9185 9.5 16.6005 9.6317 16.3661 9.86612C16.1317 10.1005 16 10.4185 16 10.75C16 11.0815 16.1317 11.3995 16.3661 11.6339C16.6005 11.8683 16.9185 12 17.25 12C17.5815 12 17.8995 11.8683 18.1339 11.6339C18.3683 11.3995 18.5 11.0815 18.5 10.75C18.5 10.4185 18.3683 10.1005 18.1339 9.86612C17.8995 9.6317 17.5815 9.5 17.25 9.5ZM17.75 13C17.4185 13 17.1005 13.1317 16.8661 13.3661C16.6317 13.6005 16.5 13.9185 16.5 14.25C16.5 14.5815 16.6317 14.8995 16.8661 15.1339C17.1005 15.3683 17.4185 15.5 17.75 15.5C18.0815 15.5 18.3995 15.3683 18.6339 15.1339C18.8683 14.8995 19 14.5815 19 14.25C19 13.9185 18.8683 13.6005 18.6339 13.3661C18.3995 13.1317 18.0815 13 17.75 13ZM15.25 15.5C14.9185 15.5 14.6005 15.6317 14.3661 15.8661C14.1317 16.1005 14 16.4185 14 16.75C14 17.0815 14.1317 17.3995 14.3661 17.6339C14.6005 17.8683 14.9185 18 15.25 18C15.5815 18 15.8995 17.8683 16.1339 17.6339C16.3683 17.3995 16.5 17.0815 16.5 16.75C16.5 16.4185 16.3683 16.1005 16.1339 15.8661C15.8995 15.6317 15.5815 15.5 15.25 15.5Z" fill="#2159DE" stroke="#2159DE" stroke-width="0.5"/>
</svg>
