<svg width="32" height="32" viewBox="0 0 32 32" fill="none" xmlns="http://www.w3.org/2000/svg">
    <path fill-rule="evenodd" clip-rule="evenodd" d="M6.00001 3.29995C5.61341 3.29995 5.30001 3.61335 5.30001 3.99995V28C5.30001 28.3865 5.61341 28.7 6.00001 28.7H26C26.3866 28.7 26.7 28.3866 26.7 28V11.3H22C20.1775 11.3 18.7 9.82249 18.7 7.99995V3.29995H6.00001ZM21.3 5.13843L24.8615 8.69995H22C21.6134 8.69995 21.3 8.38655 21.3 7.99995V5.13843ZM2.70001 3.99995C2.70001 2.17741 4.17747 0.699951 6.00001 0.699951H20C20.3448 0.699951 20.6755 0.836915 20.9193 1.08071L28.9193 9.08071C29.163 9.32451 29.3 9.65517 29.3 9.99995V28C29.3 29.8225 27.8226 31.2999 26 31.2999H6.00001C4.17747 31.2999 2.70001 29.8225 2.70001 28V3.99995Z" fill="#26995B"/>
    <path d="M8.80758 18.5015C8.98088 17.4446 9.28201 16.4716 9.71099 15.5824C10.1428 14.6932 10.7124 13.8694 11.4198 13.1108H13.1584C12.8885 13.3921 12.6243 13.7358 12.3658 14.1421C12.1101 14.5455 11.8715 14.9887 11.6499 15.4716C11.4283 15.9546 11.2351 16.4546 11.0704 16.9716C10.9056 17.4858 10.7806 17.9958 10.6954 18.5015C10.5817 19.1748 10.5363 19.8552 10.559 20.5427C10.5846 21.2273 10.667 21.8637 10.8062 22.4517C10.9482 23.0398 11.1357 23.5214 11.3687 23.8964H9.63429C9.18258 23.1378 8.88855 22.314 8.75218 21.4248C8.61582 20.5356 8.63429 19.5611 8.80758 18.5015Z" fill="#26995B"/>
    <path d="M15.3413 15.4546L16.1595 17.7429L17.7746 15.4546H19.6368L17.195 18.7273L18.597 22H16.7433L15.8271 19.7373L14.1822 22H12.3072L14.7959 18.7273L13.4663 15.4546H15.3413Z" fill="#26995B"/>
    <path d="M23.2675 18.5015C23.0942 19.5611 22.7916 20.5356 22.3598 21.4248C21.9308 22.314 21.3612 23.1378 20.651 23.8964H18.9166C19.1865 23.6151 19.4493 23.2714 19.705 22.8651C19.9606 22.4589 20.1993 22.0157 20.4209 21.5356C20.6453 21.0526 20.8399 20.5526 21.0047 20.0356C21.1694 19.5185 21.2944 19.0071 21.3797 18.5015C21.4933 17.8282 21.5373 17.1492 21.5118 16.4645C21.489 15.777 21.4067 15.1407 21.2646 14.5554C21.1254 13.9674 20.9379 13.4858 20.7021 13.1108H22.4365C22.891 13.8694 23.1865 14.6932 23.3229 15.5824C23.4592 16.4716 23.4407 17.4446 23.2675 18.5015Z" fill="#26995B"/>
</svg>
