<svg width="16" height="17" viewBox="0 0 16 17" fill="none" xmlns="http://www.w3.org/2000/svg">
    <path d="M8 0.5C3.5888 0.5 0 4.0888 0 8.5C0 12.9112 3.5888 16.5 8 16.5C12.4112 16.5 16 12.9112 16 8.5C16 4.0888 12.4112 0.5 8 0.5ZM8 13.3C7.558 13.3 7.2 12.942 7.2 12.5C7.2 12.058 7.558 11.7 8 11.7C8.442 11.7 8.8 12.058 8.8 12.5C8.8 12.942 8.442 13.3 8 13.3ZM9.196 8.8908C8.7992 9.2 8.6 9.3552 8.6 9.9C8.6 10.2316 8.3316 10.5 8 10.5C7.6684 10.5 7.4 10.2316 7.4 9.9C7.4 8.7688 8.0116 8.2924 8.4584 7.9444C8.8888 7.6088 9.2 7.3664 9.2 6.5C9.2 5.8384 8.6616 5.3 8 5.3C7.3384 5.3 6.8 5.8384 6.8 6.5V6.7C6.8 7.0316 6.5316 7.3 6.2 7.3C5.8684 7.3 5.6 7.0316 5.6 6.7V6.5C5.6 5.1764 6.6764 4.1 8 4.1C9.3236 4.1 10.4 5.1764 10.4 6.5C10.4 7.9524 9.704 8.4948 9.196 8.8908Z" fill="#F69300"/>
</svg>
