<svg width="145" height="45" viewBox="0 0 599 73" fill="none" xmlns="http://www.w3.org/2000/svg">
    <path d="M14.5128 73H0.450284L26.054 0.272725H42.3182L67.9574 73H53.8949L34.4702 15.1875H33.902L14.5128 73ZM14.9744 44.4844H53.3267V55.0668H14.9744V44.4844ZM95.5366 73V0.272725H122.809C128.396 0.272725 133.084 1.31439 136.872 3.39773C140.683 5.48106 143.56 8.34564 145.501 11.9915C147.466 15.6136 148.449 19.733 148.449 24.3494C148.449 29.0133 147.466 33.1562 145.501 36.7784C143.536 40.4006 140.636 43.2533 136.801 45.3366C132.966 47.3963 128.243 48.4261 122.632 48.4261H104.556V37.5952H120.856C124.123 37.5952 126.798 37.027 128.882 35.8906C130.965 34.7543 132.504 33.1918 133.498 31.2031C134.516 29.2145 135.025 26.9299 135.025 24.3494C135.025 21.7689 134.516 19.4962 133.498 17.5312C132.504 15.5663 130.953 14.0393 128.846 12.9503C126.763 11.8376 124.076 11.2812 120.785 11.2812H108.711V73H95.5366ZM177.892 73V0.272725H205.165C210.752 0.272725 215.439 1.31439 219.227 3.39773C223.039 5.48106 225.915 8.34564 227.857 11.9915C229.821 15.6136 230.804 19.733 230.804 24.3494C230.804 29.0133 229.821 33.1562 227.857 36.7784C225.892 40.4006 222.991 43.2533 219.156 45.3366C215.321 47.3963 210.598 48.4261 204.987 48.4261H186.912V37.5952H203.212C206.479 37.5952 209.154 37.027 211.237 35.8906C213.321 34.7543 214.859 33.1918 215.854 31.2031C216.872 29.2145 217.381 26.9299 217.381 24.3494C217.381 21.7689 216.872 19.4962 215.854 17.5312C214.859 15.5663 213.309 14.0393 211.202 12.9503C209.118 11.8376 206.431 11.2812 203.141 11.2812H191.067V73H177.892ZM320.013 0.272725V73H308.294L274.026 23.4616H273.422V73H260.248V0.272725H272.037L306.27 49.8466H306.909V0.272725H320.013ZM361.708 73H347.646L373.249 0.272725H389.513L415.153 73H401.09L381.665 15.1875H381.097L361.708 73ZM362.17 44.4844H400.522V55.0668H362.17V44.4844ZM442.732 0.272725H458.854L480.445 52.9716H481.297L502.888 0.272725H519.01V73H506.368V23.0355H505.694L485.594 72.7869H476.148L456.049 22.929H455.374V73H442.732V0.272725ZM551.357 73V0.272725H598.658V11.3168H564.532V31.0611H596.208V42.1051H564.532V61.956H598.942V73H551.357Z" fill="white"/>
</svg>
