<svg width="172" height="172" viewBox="0 0 172 172" fill="none" xmlns="http://www.w3.org/2000/svg">
    <rect width="171.997" height="171.997" rx="9.29699" fill="#39A484"/>
    <path d="M80.1881 66.6287C73.7698 66.6287 68.5667 71.8319 68.5667 78.2502C68.5667 84.6687 73.7698 89.8716 80.1881 89.8716C86.6066 89.8716 91.8095 84.6687 91.8095 78.2502C91.8095 71.8319 86.6066 66.6287 80.1881 66.6287ZM74.3774 78.2502C74.3774 75.041 76.9789 72.4395 80.1881 72.4395C83.3972 72.4395 85.9988 75.041 85.9988 78.2502C85.9988 81.4592 83.3972 84.0609 80.1881 84.0609C76.9789 84.0609 74.3774 81.4592 74.3774 78.2502ZM47.2607 63.7234C47.2607 58.9096 51.1631 55.0073 55.9768 55.0073H104.399C109.213 55.0073 113.115 58.9096 113.115 63.7234V82.124H107.305V72.4395H104.399C99.5858 72.4395 95.6833 68.5371 95.6833 63.7234V60.818H64.6929V63.7234C64.6929 68.5371 60.7906 72.4395 55.9768 72.4395H53.0715V84.0609H55.9768C60.7906 84.0609 64.6929 87.9634 64.6929 92.777V95.6823H93.7464V101.493H55.9768C51.1631 101.493 47.2607 97.5905 47.2607 92.777V63.7234ZM55.9768 60.818C54.3722 60.818 53.0715 62.1188 53.0715 63.7234V66.6287H55.9768C57.5814 66.6287 58.8822 65.328 58.8822 63.7234V60.818H55.9768ZM107.305 66.6287V63.7234C107.305 62.1188 106.004 60.818 104.399 60.818H101.494V63.7234C101.494 65.328 102.795 66.6287 104.399 66.6287H107.305ZM53.0715 92.777C53.0715 94.3815 54.3722 95.6823 55.9768 95.6823H58.8822V92.777C58.8822 91.1724 57.5814 89.8716 55.9768 89.8716H53.0715V92.777ZM56.5632 107.304H93.7464V113.114H66.6299C62.3283 113.114 58.5726 110.777 56.5632 107.304ZM124.737 82.124V74.3764C124.737 70.0749 122.4 66.3192 118.926 64.3098V82.124H124.737ZM103.431 85.9978C100.222 85.9978 97.6202 88.5994 97.6202 91.8085V122.799C97.6202 126.008 100.222 128.61 103.431 128.61H122.799C126.008 128.61 128.61 126.008 128.61 122.799V91.8085C128.61 88.5994 126.008 85.9978 122.799 85.9978H103.431ZM105.368 103.43H109.241C110.31 103.43 111.178 104.297 111.178 105.367C111.178 106.436 110.31 107.304 109.241 107.304H105.368C104.298 107.304 103.431 106.436 103.431 105.367C103.431 104.297 104.298 103.43 105.368 103.43ZM116.989 103.43H120.863C121.933 103.43 122.8 104.297 122.8 105.367C122.8 106.436 121.933 107.304 120.863 107.304H116.989C115.92 107.304 115.052 106.436 115.052 105.367C115.052 104.297 115.92 103.43 116.989 103.43ZM105.368 111.178H109.241C110.31 111.178 111.178 112.045 111.178 113.114C111.178 114.184 110.31 115.051 109.241 115.051H105.368C104.298 115.051 103.431 114.184 103.431 113.114C103.431 112.045 104.298 111.178 105.368 111.178ZM116.989 111.178H120.863C121.933 111.178 122.8 112.045 122.8 113.114C122.8 114.184 121.933 115.051 120.863 115.051H116.989C115.92 115.051 115.052 114.184 115.052 113.114C115.052 112.045 115.92 111.178 116.989 111.178ZM105.368 118.925H109.241C110.31 118.925 111.178 119.793 111.178 120.862C111.178 121.932 110.31 122.799 109.241 122.799H105.368C104.298 122.799 103.431 121.932 103.431 120.862C103.431 119.793 104.298 118.925 105.368 118.925ZM116.989 118.925H120.863C121.933 118.925 122.8 119.793 122.8 120.862C122.8 121.932 121.933 122.799 120.863 122.799H116.989C115.92 122.799 115.052 121.932 115.052 120.862C115.052 119.793 115.92 118.925 116.989 118.925ZM103.431 93.745C103.431 92.6755 104.298 91.8081 105.367 91.8081H120.863C121.932 91.8081 122.8 92.6755 122.8 93.745V97.6188C122.8 98.6884 121.932 99.5557 120.863 99.5557H105.367C104.298 99.5557 103.431 98.6884 103.431 97.6188V93.745Z" fill="white"/>
</svg>
