<svg width="16" height="16" viewBox="0 0 16 16" fill="none" xmlns="http://www.w3.org/2000/svg">
    <path fill-rule="evenodd" clip-rule="evenodd" d="M4.8 7L6.68436 8.81983C7.07571 9.19778 7.0931 9.81925 6.7235 10.2185L6.70604 10.2373C6.32058 10.6537 5.66632 10.6663 5.26511 10.2651L1 6L5.27889 1.72111C5.67473 1.32527 6.31853 1.33187 6.70617 1.73575C7.08459 2.13001 7.07602 2.75516 6.68694 3.1389L4.8 5H11C13.3053 5 15 6.73966 15 9V14C15 14.5523 14.5523 15 14 15C13.4477 15 13 14.5523 13 14V9C13 7.87025 12.1531 7 11 7H4.8Z" fill="#8E929D"/>
</svg>
