<svg width="16" height="16" viewBox="0 0 16 16" fill="none" xmlns="http://www.w3.org/2000/svg">
    <path fill-rule="evenodd" clip-rule="evenodd" d="M6.97071 2.64998C4.58805 2.64998 2.65001 4.59393 2.65001 6.99998C2.65001 9.40602 4.58805 11.35 6.97071 11.35C8.17824 11.35 9.26974 10.8521 10.055 10.0463C10.8201 9.2613 11.2914 8.187 11.2914 6.99998C11.2914 4.59393 9.35338 2.64998 6.97071 2.64998ZM1.35001 6.99998C1.35001 3.88317 3.86289 1.34998 6.97071 1.34998C10.0785 1.34998 12.5914 3.88317 12.5914 6.99998C12.5914 8.30727 12.1491 9.51208 11.407 10.4697L14.461 13.5417C14.7141 13.7963 14.7129 14.2079 14.4583 14.4609C14.2037 14.714 13.7921 14.7128 13.539 14.4582L10.4979 11.3992C9.53409 12.1808 8.30672 12.65 6.97071 12.65C3.86289 12.65 1.35001 10.1168 1.35001 6.99998Z" fill="#F69300" stroke="#F69300" stroke-linecap="round"/>
</svg>
