<svg width="21" height="21" viewBox="0 0 21 21" fill="none" xmlns="http://www.w3.org/2000/svg">
    <path fill-rule="evenodd" clip-rule="evenodd" d="M9.32758 5.44253C7.18193 5.44253 5.44253 7.18193 5.44253 9.32758C5.44253 11.4732 7.18193 13.2126 9.32758 13.2126C11.4732 13.2126 13.2126 11.4732 13.2126 9.32758C13.2126 7.18193 11.4732 5.44253 9.32758 5.44253ZM3.5 9.32758C3.5 6.1091 6.1091 3.5 9.32758 3.5C12.5461 3.5 15.1552 6.1091 15.1552 9.32758C15.1552 10.5862 14.7562 11.7516 14.0778 12.7042L16.8132 15.4396C17.1925 15.8189 17.1925 16.4339 16.8132 16.8132Lnan nanL16.8132 16.8132C16.4339 17.1925 15.8189 17.1925 15.4396 16.8132L12.7042 14.0778C11.7516 14.7562 10.5862 15.1552 9.32758 15.1552C6.1091 15.1552 3.5 12.5461 3.5 9.32758Z" fill="#F69300"/>
</svg>
