<svg width="20" height="20" viewBox="0 0 20 20" fill="none" xmlns="http://www.w3.org/2000/svg">
<path fill-rule="evenodd" clip-rule="evenodd" d="M8.82758 4.94253C6.68193 4.94253 4.94253 6.68193 4.94253 8.82758C4.94253 10.9732 6.68193 12.7126 8.82758 12.7126C10.9732 12.7126 12.7126 10.9732 12.7126 8.82758C12.7126 6.68193 10.9732 4.94253 8.82758 4.94253ZM3 8.82758C3 5.6091 5.6091 3 8.82758 3C12.0461 3 14.6552 5.6091 14.6552 8.82758C14.6552 10.0862 14.2562 11.2516 13.5778 12.2042L16.3132 14.9396C16.6925 15.3189 16.6925 15.9339 16.3132 16.3132Lnan nanLnan nanL16.3132 16.3132C15.9339 16.6925 15.3189 16.6925 14.9396 16.3132L12.2042 13.5778C11.2516 14.2562 10.0862 14.6552 8.82758 14.6552C5.6091 14.6552 3 12.0461 3 8.82758Z" fill="#F69300"/>
</svg>
