<svg width="24" height="25" viewBox="0 0 24 25" fill="none" xmlns="http://www.w3.org/2000/svg">
    <path fill-rule="evenodd" clip-rule="evenodd" d="M12 5.5H4L4 19.5H12V5.5ZM4 3.5C2.89543 3.5 2 4.39543 2 5.5V19.5C2 20.6046 2.89543 21.5 4 21.5H12C13.1046 21.5 14 20.6046 14 19.5H15C16.3062 19.5 17.4175 18.6652 17.8293 17.5H19C20.6569 17.5 22 16.1569 22 14.5V10.5C22 8.84315 20.6569 7.5 19 7.5H17.8293C17.4175 6.33481 16.3062 5.5 15 5.5H14C14 4.39543 13.1046 3.5 12 3.5H4ZM18 9.5V15.5H19C19.5523 15.5 20 15.0523 20 14.5V10.5C20 9.94772 19.5523 9.5 19 9.5H18ZM15 17.5H14V7.5H15C15.5523 7.5 16 7.94772 16 8.5V16.5C16 17.0523 15.5523 17.5 15 17.5Z" fill="#3DC4D6"/>
</svg>
